<mxfile host="app.diagrams.net" modified="2021-01-15T15:26:16.523Z" agent="5.0 (X11)" etag="cWlxgvRge_FeSMYNgX70" version="13.8.5" type="github">
  <diagram id="6a731a19-8d31-9384-78a2-239565b7b9f0" name="Page-1">
    <mxGraphModel dx="2591" dy="781" grid="1" gridSize="10" guides="1" tooltips="1" connect="1" arrows="1" fold="1" page="1" pageScale="1" pageWidth="1169" pageHeight="827" background="#ffffff" math="0" shadow="0">
      <root>
        <mxCell id="0" />
        <mxCell id="1" parent="0" />
        <mxCell id="2" value="start" style="shape=mxgraph.flowchart.terminator;strokeWidth=2;gradientColor=none;gradientDirection=north;fontStyle=0;html=1;" parent="1" vertex="1">
          <mxGeometry x="260" y="60" width="120" height="30" as="geometry" />
        </mxCell>
        <mxCell id="7" style="fontStyle=1;strokeColor=#003366;strokeWidth=1;html=1;" parent="1" source="2" edge="1">
          <mxGeometry relative="1" as="geometry">
            <mxPoint x="320" y="130" as="targetPoint" />
          </mxGeometry>
        </mxCell>
        <mxCell id="q-yUy6KLLp3OQgvRpyQH-70" style="edgeStyle=orthogonalEdgeStyle;rounded=0;orthogonalLoop=1;jettySize=auto;html=1;" edge="1" parent="1" source="q-yUy6KLLp3OQgvRpyQH-55" target="q-yUy6KLLp3OQgvRpyQH-67">
          <mxGeometry relative="1" as="geometry" />
        </mxCell>
        <mxCell id="q-yUy6KLLp3OQgvRpyQH-55" value="&lt;div&gt;Setup input and output&lt;/div&gt;" style="rounded=1;whiteSpace=wrap;html=1;absoluteArcSize=1;arcSize=14;strokeWidth=2;" vertex="1" parent="1">
          <mxGeometry x="270" y="130" width="100" height="60" as="geometry" />
        </mxCell>
        <mxCell id="q-yUy6KLLp3OQgvRpyQH-58" style="edgeStyle=orthogonalEdgeStyle;rounded=0;orthogonalLoop=1;jettySize=auto;html=1;" edge="1" parent="1" source="q-yUy6KLLp3OQgvRpyQH-57" target="q-yUy6KLLp3OQgvRpyQH-57">
          <mxGeometry relative="1" as="geometry">
            <mxPoint x="-30" y="45" as="targetPoint" />
            <Array as="points">
              <mxPoint x="-30" y="25" />
              <mxPoint x="-110" y="25" />
              <mxPoint x="-110" y="75" />
            </Array>
          </mxGeometry>
        </mxCell>
        <mxCell id="q-yUy6KLLp3OQgvRpyQH-59" value="&lt;div&gt;while (1)&lt;/div&gt;" style="edgeLabel;html=1;align=center;verticalAlign=middle;resizable=0;points=[];" vertex="1" connectable="0" parent="q-yUy6KLLp3OQgvRpyQH-58">
          <mxGeometry x="-0.0778" y="2" relative="1" as="geometry">
            <mxPoint as="offset" />
          </mxGeometry>
        </mxCell>
        <mxCell id="q-yUy6KLLp3OQgvRpyQH-65" style="edgeStyle=orthogonalEdgeStyle;rounded=0;orthogonalLoop=1;jettySize=auto;html=1;entryX=0;entryY=0.5;entryDx=0;entryDy=0;entryPerimeter=0;" edge="1" parent="1" source="q-yUy6KLLp3OQgvRpyQH-57" target="q-yUy6KLLp3OQgvRpyQH-63">
          <mxGeometry relative="1" as="geometry" />
        </mxCell>
        <mxCell id="q-yUy6KLLp3OQgvRpyQH-57" value="Display Error LED" style="rounded=1;whiteSpace=wrap;html=1;absoluteArcSize=1;arcSize=14;strokeWidth=2;" vertex="1" parent="1">
          <mxGeometry x="-80" y="45" width="100" height="60" as="geometry" />
        </mxCell>
        <mxCell id="q-yUy6KLLp3OQgvRpyQH-62" style="edgeStyle=orthogonalEdgeStyle;rounded=0;orthogonalLoop=1;jettySize=auto;html=1;entryX=0;entryY=0.5;entryDx=0;entryDy=0;entryPerimeter=0;" edge="1" parent="1" source="q-yUy6KLLp3OQgvRpyQH-60" target="2">
          <mxGeometry relative="1" as="geometry" />
        </mxCell>
        <mxCell id="q-yUy6KLLp3OQgvRpyQH-60" value="Reset FONA" style="rounded=1;whiteSpace=wrap;html=1;absoluteArcSize=1;arcSize=14;strokeWidth=2;" vertex="1" parent="1">
          <mxGeometry x="130" y="45" width="100" height="60" as="geometry" />
        </mxCell>
        <mxCell id="q-yUy6KLLp3OQgvRpyQH-64" style="edgeStyle=orthogonalEdgeStyle;rounded=0;orthogonalLoop=1;jettySize=auto;html=1;entryX=0;entryY=0.5;entryDx=0;entryDy=0;" edge="1" parent="1" source="q-yUy6KLLp3OQgvRpyQH-63" target="q-yUy6KLLp3OQgvRpyQH-60">
          <mxGeometry relative="1" as="geometry" />
        </mxCell>
        <mxCell id="q-yUy6KLLp3OQgvRpyQH-63" value="&lt;div&gt;Push reset button 4 seconds&lt;/div&gt;" style="verticalLabelPosition=bottom;verticalAlign=top;html=1;shape=mxgraph.flowchart.summing_function;" vertex="1" parent="1">
          <mxGeometry x="50" y="50" width="50" height="50" as="geometry" />
        </mxCell>
        <mxCell id="q-yUy6KLLp3OQgvRpyQH-68" style="edgeStyle=orthogonalEdgeStyle;rounded=0;orthogonalLoop=1;jettySize=auto;html=1;entryX=0.5;entryY=1;entryDx=0;entryDy=0;" edge="1" parent="1" source="q-yUy6KLLp3OQgvRpyQH-67" target="q-yUy6KLLp3OQgvRpyQH-57">
          <mxGeometry relative="1" as="geometry" />
        </mxCell>
        <mxCell id="q-yUy6KLLp3OQgvRpyQH-69" value="&lt;div&gt;Error?&lt;/div&gt;" style="edgeLabel;html=1;align=center;verticalAlign=middle;resizable=0;points=[];" vertex="1" connectable="0" parent="q-yUy6KLLp3OQgvRpyQH-68">
          <mxGeometry x="-0.8517" y="-3" relative="1" as="geometry">
            <mxPoint as="offset" />
          </mxGeometry>
        </mxCell>
        <mxCell id="q-yUy6KLLp3OQgvRpyQH-72" style="edgeStyle=orthogonalEdgeStyle;rounded=0;orthogonalLoop=1;jettySize=auto;html=1;entryX=0.5;entryY=0;entryDx=0;entryDy=0;" edge="1" parent="1" source="q-yUy6KLLp3OQgvRpyQH-67" target="q-yUy6KLLp3OQgvRpyQH-71">
          <mxGeometry relative="1" as="geometry" />
        </mxCell>
        <mxCell id="q-yUy6KLLp3OQgvRpyQH-67" value="&lt;div&gt;Connecto to FONA&lt;br&gt;&lt;/div&gt;" style="rounded=1;whiteSpace=wrap;html=1;absoluteArcSize=1;arcSize=14;strokeWidth=2;fillColor=#e1d5e7;strokeColor=#9673a6;" vertex="1" parent="1">
          <mxGeometry x="270" y="220" width="100" height="60" as="geometry" />
        </mxCell>
        <mxCell id="q-yUy6KLLp3OQgvRpyQH-73" style="edgeStyle=orthogonalEdgeStyle;rounded=0;orthogonalLoop=1;jettySize=auto;html=1;entryX=0.5;entryY=1;entryDx=0;entryDy=0;" edge="1" parent="1" source="q-yUy6KLLp3OQgvRpyQH-71" target="q-yUy6KLLp3OQgvRpyQH-57">
          <mxGeometry relative="1" as="geometry" />
        </mxCell>
        <mxCell id="q-yUy6KLLp3OQgvRpyQH-74" value="&lt;div&gt;Error?&lt;/div&gt;" style="edgeLabel;html=1;align=center;verticalAlign=middle;resizable=0;points=[];" vertex="1" connectable="0" parent="q-yUy6KLLp3OQgvRpyQH-73">
          <mxGeometry x="-0.8766" y="-3" relative="1" as="geometry">
            <mxPoint as="offset" />
          </mxGeometry>
        </mxCell>
        <mxCell id="q-yUy6KLLp3OQgvRpyQH-77" style="edgeStyle=orthogonalEdgeStyle;rounded=0;orthogonalLoop=1;jettySize=auto;html=1;entryX=0.5;entryY=0;entryDx=0;entryDy=0;" edge="1" parent="1" source="q-yUy6KLLp3OQgvRpyQH-71" target="q-yUy6KLLp3OQgvRpyQH-76">
          <mxGeometry relative="1" as="geometry" />
        </mxCell>
        <mxCell id="q-yUy6KLLp3OQgvRpyQH-71" value="&lt;div&gt;Unlock SIM&lt;br&gt;&lt;/div&gt;" style="rounded=1;whiteSpace=wrap;html=1;absoluteArcSize=1;arcSize=14;strokeWidth=2;fillColor=#e1d5e7;strokeColor=#9673a6;" vertex="1" parent="1">
          <mxGeometry x="270" y="310" width="100" height="60" as="geometry" />
        </mxCell>
        <mxCell id="q-yUy6KLLp3OQgvRpyQH-79" style="edgeStyle=orthogonalEdgeStyle;rounded=0;orthogonalLoop=1;jettySize=auto;html=1;entryX=0.5;entryY=0;entryDx=0;entryDy=0;" edge="1" parent="1" source="q-yUy6KLLp3OQgvRpyQH-76" target="q-yUy6KLLp3OQgvRpyQH-78">
          <mxGeometry relative="1" as="geometry" />
        </mxCell>
        <mxCell id="q-yUy6KLLp3OQgvRpyQH-76" value="Read DS18B20" style="rounded=1;whiteSpace=wrap;html=1;absoluteArcSize=1;arcSize=14;strokeWidth=2;fillColor=#f5f5f5;strokeColor=#666666;fontColor=#333333;" vertex="1" parent="1">
          <mxGeometry x="270" y="400" width="100" height="60" as="geometry" />
        </mxCell>
        <mxCell id="q-yUy6KLLp3OQgvRpyQH-78" value="Send OK start message" style="rounded=1;whiteSpace=wrap;html=1;absoluteArcSize=1;arcSize=14;strokeWidth=2;fillColor=#e1d5e7;strokeColor=#9673a6;" vertex="1" parent="1">
          <mxGeometry x="270" y="490" width="100" height="60" as="geometry" />
        </mxCell>
      </root>
    </mxGraphModel>
  </diagram>
</mxfile>
